<?xml version="1.0" encoding="UTF-8" standalone="no"?>
<!-- Created with Inkscape (http://www.inkscape.org/) -->

<svg
   xmlns:dc="http://purl.org/dc/elements/1.1/"
   xmlns:cc="http://creativecommons.org/ns#"
   xmlns:rdf="http://www.w3.org/1999/02/22-rdf-syntax-ns#"
   xmlns:svg="http://www.w3.org/2000/svg"
   xmlns="http://www.w3.org/2000/svg"
   xmlns:sodipodi="http://sodipodi.sourceforge.net/DTD/sodipodi-0.dtd"
   xmlns:inkscape="http://www.inkscape.org/namespaces/inkscape"
   width="128"
   height="128"
   viewBox="0 0 128 128"
   id="svg2"
   version="1.1"
   inkscape:version="0.91 r13725"
   sodipodi:docname="clipboard-ring-icon.svg"
   inkscape:export-filename="C:\Users\SirTobi\Work\code-clip-ring\images\icon.png"
   inkscape:export-xdpi="90"
   inkscape:export-ydpi="90">
  <defs
     id="defs4" />
  <sodipodi:namedview
     id="base"
     pagecolor="#ffffff"
     bordercolor="#666666"
     borderopacity="1.0"
     inkscape:pageopacity="0.0"
     inkscape:pageshadow="2"
     inkscape:zoom="1"
     inkscape:cx="-265.17997"
     inkscape:cy="39.826477"
     inkscape:document-units="px"
     inkscape:current-layer="layer1"
     showgrid="false"
     units="px"
     inkscape:snap-center="true"
     inkscape:snap-object-midpoints="true"
     inkscape:snap-grids="true"
     inkscape:window-width="1920"
     inkscape:window-height="1027"
     inkscape:window-x="-8"
     inkscape:window-y="-8"
     inkscape:window-maximized="1"
     inkscape:snap-others="false">
    <inkscape:grid
       type="xygrid"
       id="grid4189" />
  </sodipodi:namedview>
  <metadata
     id="metadata7">
    <rdf:RDF>
      <cc:Work
         rdf:about="">
        <dc:format>image/svg+xml</dc:format>
        <dc:type
           rdf:resource="http://purl.org/dc/dcmitype/StillImage" />
        <dc:title />
      </cc:Work>
    </rdf:RDF>
  </metadata>
  <g
     inkscape:label="Ebene 1"
     inkscape:groupmode="layer"
     id="layer1"
     transform="translate(0,-924.36217)">
    <path
       sodipodi:type="inkscape:offset"
       inkscape:radius="0"
       inkscape:original="M 67.564453 926.09766 C 62.882695 925.83908 58.170949 926.10294 53.519531 926.89453 C 55.787433 928.61336 58.054993 930.33307 60.322266 932.05273 C 58.917101 933.90054 57.517497 935.75155 56.115234 937.60156 C 63.549813 936.45305 71.143221 936.93186 78.375 939.00391 C 86.628411 941.39882 94.161449 945.80081 100.29688 951.81836 L 107.42578 952.33984 L 108.0293 944.05273 C 100.59505 936.72416 91.457491 931.35925 81.435547 928.4375 C 76.899593 927.13848 72.246211 926.35623 67.564453 926.09766 z M 34.869141 933.13281 C 19.586798 941.06355 8.2151354 954.90286 3.4003906 971.43359 C 2.6444033 974.13593 2.0710033 976.88511 1.6816406 979.66406 C 4.0176974 978.03729 6.3540935 976.41207 8.6914062 974.78711 C 10.017644 976.69559 11.344413 978.60214 12.671875 980.50977 C 12.984254 978.47999 13.416747 976.47084 13.966797 974.49219 C 17.918315 960.86618 27.265382 949.44717 39.841797 942.88086 L 42.542969 936.25781 L 34.869141 933.13281 z M 119.72656 959.88281 C 118.79167 962.57201 117.85516 965.26209 116.91992 967.95117 C 114.73271 967.19041 112.54666 966.42852 110.35938 965.66797 C 116.2353 977.35963 117.48682 990.83811 113.86523 1003.4121 C 112.98789 1006.376 111.84784 1009.2561 110.45898 1012.0176 L 112.18164 1019.0176 L 120.20703 1017.043 C 121.93174 1013.6538 123.34508 1010.115 124.43164 1006.4707 C 128.9066 990.91377 127.22213 974.23063 119.72656 959.88281 z M 7.1972656 992.99805 L 1.8652344 999.3125 C 5.1776155 1019.2137 17.820331 1036.3248 35.871094 1045.3359 C 35.039553 1042.5898 34.209111 1039.8442 33.378906 1037.0977 C 35.577695 1036.4333 37.775978 1035.7685 39.974609 1035.1035 C 25.514672 1027.5815 15.419273 1013.7138 12.701172 997.64258 L 7.1972656 992.99805 z M 100.4082 1025.9238 C 88.799387 1037.3679 72.496376 1042.7061 56.367188 1040.3438 L 50.236328 1044.1465 L 54.607422 1051.1895 C 74.519581 1054.1406 94.644308 1047.3981 108.75977 1033.0469 C 105.92993 1032.9889 103.09936 1032.9311 100.26953 1032.873 C 100.31623 1030.5563 100.3618 1028.2405 100.4082 1025.9238 z "
       style="fill:#038fd6;fill-opacity:1;fill-rule:evenodd;stroke:#ffffff;stroke-width:2;stroke-linecap:butt;stroke-linejoin:miter;stroke-miterlimit:4;stroke-dasharray:none;stroke-opacity:0.99111167"
       id="path4307"
       d="m 67.564453,926.09766 c -4.681758,-0.25858 -9.393504,0.005 -14.044922,0.79687 2.267902,1.71883 4.535462,3.43854 6.802735,5.1582 -1.405165,1.84781 -2.804769,3.69882 -4.207032,5.54883 7.434579,-1.14851 15.027987,-0.6697 22.259766,1.40235 8.253411,2.39491 15.786449,6.7969 21.92188,12.81445 l 7.1289,0.52148 0.60352,-8.28711 c -7.43425,-7.32857 -16.571809,-12.69348 -26.593753,-15.61523 -4.535954,-1.29902 -9.189336,-2.08127 -13.871094,-2.33984 z m -32.695312,7.03515 c -15.282343,7.93074 -26.6540056,21.77005 -31.4687504,38.30078 -0.7559873,2.70234 -1.3293873,5.45152 -1.71875,8.23047 2.3360568,-1.62677 4.6724529,-3.25199 7.0097656,-4.87695 1.3262378,1.90848 2.6530068,3.81503 3.9804688,5.72266 0.312379,-2.02978 0.744872,-4.03893 1.294922,-6.01758 3.951518,-13.62601 13.298585,-25.04502 25.875,-31.61133 l 2.701172,-6.62305 -7.673828,-3.125 z m 84.857419,26.75 c -0.93489,2.6892 -1.8714,5.37928 -2.80664,8.06836 -2.18721,-0.76076 -4.37326,-1.52265 -6.56054,-2.2832 5.87592,11.69166 7.12744,25.17014 3.50585,37.74413 -0.87734,2.9639 -2.01739,5.844 -3.40625,8.6055 l 1.72266,7 8.02539,-1.9746 c 1.72471,-3.3892 3.13805,-6.928 4.22461,-10.5723 4.47496,-15.55693 2.79049,-32.24007 -4.70508,-46.58789 z M 7.1972656,992.99805 1.8652344,999.3125 c 3.3123811,19.9012 15.9550966,37.0123 34.0058596,46.0234 -0.831541,-2.7461 -1.661983,-5.4917 -2.492188,-8.2382 2.198789,-0.6644 4.397072,-1.3292 6.595703,-1.9942 -14.459937,-7.522 -24.555336,-21.3897 -27.273437,-37.46092 L 7.1972656,992.99805 Z M 100.4082,1025.9238 c -11.608813,11.4441 -27.911824,16.7823 -44.041012,14.42 l -6.13086,3.8027 4.371094,7.043 c 19.912159,2.9511 40.036886,-3.7914 54.152348,-18.1426 -2.82984,-0.058 -5.66041,-0.1158 -8.49024,-0.1739 0.0467,-2.3167 0.0923,-4.6325 0.13867,-6.9492 z" />
    <rect
       style="fill:#038fd6;fill-opacity:1;stroke:none;stroke-width:4;stroke-miterlimit:4;stroke-dasharray:none;stroke-opacity:0.99111155"
       id="rect4325"
       width="36.606449"
       height="52.648972"
       x="45.696774"
       y="960.26147"
       rx="1.3073066" />
    <path
       style="color:#000000;font-style:normal;font-variant:normal;font-weight:normal;font-stretch:normal;font-size:medium;line-height:normal;font-family:sans-serif;text-indent:0;text-align:start;text-decoration:none;text-decoration-line:none;text-decoration-style:solid;text-decoration-color:#000000;letter-spacing:normal;word-spacing:normal;text-transform:none;direction:ltr;block-progression:tb;writing-mode:lr-tb;baseline-shift:baseline;text-anchor:start;white-space:normal;clip-rule:nonzero;display:inline;overflow:visible;visibility:visible;opacity:1;isolation:auto;mix-blend-mode:normal;color-interpolation:sRGB;color-interpolation-filters:linearRGB;solid-color:#000000;solid-opacity:1;fill:#ffffff;fill-opacity:0.99111173;fill-rule:nonzero;stroke:none;stroke-width:3.52735734;stroke-linecap:butt;stroke-linejoin:miter;stroke-miterlimit:4;stroke-dasharray:none;stroke-dashoffset:0;stroke-opacity:1;color-rendering:auto;image-rendering:auto;shape-rendering:auto;text-rendering:auto;enable-background:accumulate"
       d="m 78.996094,960.74414 c 1.303377,0 2.298828,0.9935 2.298828,2.29688 l 0,46.11768 c 0,1.3033 -0.995451,2.2968 -2.298828,2.2968 l -29.992188,0 c -1.303377,0 -2.298828,-0.9935 -2.298828,-2.2968 l 0,-46.11768 c 0,-1.30338 0.995451,-2.29688 2.298828,-2.29688 l 0,-3.52734 c -3.19652,0 -5.826172,2.6277 -5.826172,5.82422 l 0,46.11768 c 0,3.1965 2.629652,5.8242 5.826172,5.8242 l 29.992188,0 c 3.19652,0 5.826172,-2.6277 5.826172,-5.8242 l 0,-46.11768 c 0,-3.19652 -2.629652,-5.82422 -5.826172,-5.82422"
       id="rect4321"
       inkscape:connector-curvature="0"
       sodipodi:nodetypes="cssssssccssssssc" />
    <rect
       style="fill:#ffffff;fill-opacity:1;stroke:none;stroke-width:4;stroke-miterlimit:4;stroke-dasharray:none;stroke-opacity:0.99111173"
       id="rect4329"
       width="8.1870308"
       height="3.5355225"
       x="47.72971"
       y="957.2121"
       rx="1.30731" />
    <rect
       style="fill:#ffffff;fill-opacity:1;stroke:none;stroke-width:4;stroke-miterlimit:4;stroke-dasharray:none;stroke-opacity:0.99111173"
       id="rect4329-7"
       width="8.1870308"
       height="3.5225782"
       x="72.094765"
       y="957.22131"
       rx="1.30731" />
    <rect
       style="fill:#ffffff;fill-opacity:1;stroke:none;stroke-width:4;stroke-miterlimit:4;stroke-dasharray:none;stroke-opacity:0.99111167"
       id="rect4350"
       width="12.75"
       height="4.125"
       x="57.625"
       y="958.83093"
       rx="1.30731" />
    <ellipse
       style="fill:#ffffff;fill-opacity:1;stroke:none;stroke-width:4;stroke-miterlimit:4;stroke-dasharray:none;stroke-opacity:0.99111161"
       id="path4370"
       cx="64"
       cy="959.19031"
       rx="2.421875"
       ry="2.765625" />
    <rect
       style="fill:#ffffff;fill-opacity:1;stroke:none;stroke-width:4;stroke-miterlimit:4;stroke-dasharray:none;stroke-opacity:0.99111173"
       id="rect4375"
       width="27.312"
       height="4.5961938"
       x="50.344002"
       y="967.11169"
       rx="0" />
    <path
       style="fill:#ffffff;fill-opacity:1;stroke:none;stroke-width:4;stroke-miterlimit:4;stroke-dasharray:none;stroke-opacity:0.99111173"
       d="M 50.34375 49.941406 L 50.34375 54.539062 L 77.65625 54.539062 L 77.65625 49.941406 L 58.035156 49.941406 L 58.035156 54.535156 L 54.939453 54.535156 L 54.939453 49.941406 L 50.34375 49.941406 z "
       transform="translate(0,924.36217)"
       id="rect4377" />
    <path
       id="path4384"
       d="m 50.34375,980.89143 0,4.59766 27.3125,0 0,-4.59766 -19.621094,0 0,4.59375 -3.095703,0 0,-4.59375 -4.595703,0 z"
       style="fill:#ffffff;fill-opacity:1;stroke:none;stroke-width:4;stroke-miterlimit:4;stroke-dasharray:none;stroke-opacity:0.99111173"
       inkscape:connector-curvature="0" />
    <path
       inkscape:connector-curvature="0"
       style="fill:#ffffff;fill-opacity:1;stroke:none;stroke-width:4;stroke-miterlimit:4;stroke-dasharray:none;stroke-opacity:0.99111173"
       d="m 54.939453,991.89334 0,-4.59375 -4.595703,0 0,4.59766 27.3125,0 0,-4.59766 -19.621094,0 0,4.59375"
       id="path4386"
       sodipodi:nodetypes="cccccccc" />
    <path
       id="path4388"
       d="m 50.34375,993.98709 0,4.59766 27.3125,0 0,-4.59766 -19.621094,0 0,4.59375 -3.095703,0 0,-4.59375 -4.595703,0 z"
       style="fill:#ffffff;fill-opacity:1;stroke:none;stroke-width:4;stroke-miterlimit:4;stroke-dasharray:none;stroke-opacity:0.99111173"
       inkscape:connector-curvature="0" />
    <path
       sodipodi:type="star"
       style="fill:#2ae000;fill-opacity:1;stroke:#ffffff;stroke-width:1.63268232;stroke-miterlimit:6.69999981;stroke-dasharray:none;stroke-opacity:0.99111161"
       id="path4408"
       sodipodi:sides="5"
       sodipodi:cx="79.894119"
       sodipodi:cy="1015.3461"
       sodipodi:r1="11.490564"
       sodipodi:r2="5.7452822"
       sodipodi:arg1="0.44117948"
       sodipodi:arg2="1.069498"
       inkscape:flatsided="false"
       inkscape:rounded="0"
       inkscape:randomized="0"
       d="m 90.284447,1020.2527 -7.629349,0.1318 -4.216591,6.3596 -2.482982,-7.2152 -7.351351,-2.045 6.094782,-4.591 -0.326794,-7.6235 6.249763,4.3777 7.149382,-2.6666 -2.232215,7.2967 z"
       inkscape:transform-center-x="-0.085780962"
       inkscape:transform-center-y="-1.0152919"
       transform="matrix(0.86509015,0.50161641,-0.50161641,0.86509015,519.12309,93.381011)" />
  </g>
</svg>
